<svg t="1714658887173" class="icon" viewBox="0 0 1024 1024" version="1.1" xmlns="http://www.w3.org/2000/svg" p-id="6406" width="200" height="200"><path d="M230.495 89.75h563.009c93.83 0 140.746 46.915 140.745 140.745v563.009c0 93.83-46.915 140.746-140.745 140.745H230.495c-93.83 0-140.745-46.915-140.745-140.745V230.495c0-93.83 46.915-140.745 140.745-140.745z" fill="#1296DB" p-id="6407"></path><path d="M695.303 536.927a187.066 187.066 0 0 0-117.146 0 157.822 157.822 0 0 0-18.343 9.418 236.013 236.013 0 0 1 79.393 157.254h135.818v-0.137c9.483-1.522 16.307-9.927 15.851-19.52 0.47-63.75-37.182-121.617-95.655-147.015h0.082z m-214.362 3.203a223.123 223.123 0 0 0-139.869 0c-69.952 30.53-114.969 99.822-114.436 176.144-0.56 11.781 8.059 22.001 19.766 23.435h329.894c11.339-1.84 19.484-11.907 18.918-23.38 0.545-76.294-44.422-145.575-114.327-176.144l0.054-0.055z m-73.343-40.546c61.04 0.776 111.161-48.058 111.972-109.098-0.826-61.033-50.939-109.859-111.972-109.098-61.028-0.746-111.131 48.071-111.972 109.098 0.811 61.04 50.932 109.875 111.972 109.098z m226.298 0.165c50.934 0.685 92.78-40.051 93.465-90.985l0.001-0.044c-1.249-51.619-44.108-92.452-95.728-91.203-49.862 1.207-89.996 41.341-91.203 91.203 0.691 50.954 42.538 91.711 93.493 91.056l-0.028-0.027z" fill="#FFFFFF" p-id="6408"></path></svg>